<svg xmlns="http://www.w3.org/2000/svg" width="1280" height="800" viewBox="0 0 1280 800" role="img" aria-label="Simulation waveform placeholder">
  <rect width="1280" height="800" fill="#eef3f0"/>
  <g stroke="#8ea699" stroke-width="2">
    <path d="M100 190h1080M100 300h1080M100 410h1080M100 520h1080"/>
  </g>
  <path d="M120 170h120v80h120v-80h120v80h120v-80h120v80h120v-80h120v80h120" fill="none" stroke="#1a5c54" stroke-width="8"/>
  <path d="M120 280h80v80h150v-80h90v80h180v-80h110v80h200v-80h130" fill="none" stroke="#2f4d59" stroke-width="8"/>
  <path d="M120 500h140v-80h120v80h120v-80h120v80h120v-80h120v80h120v-80h120" fill="none" stroke="#476454" stroke-width="8"/>
  <text x="640" y="690" text-anchor="middle" font-family="Trebuchet MS, sans-serif" font-size="52" fill="#20372f">SIMULATION WAVEFORM</text>
</svg>
